<svg xmlns="http://www.w3.org/2000/svg" style="display:none">
  <symbol id="icon-folder" viewBox="0 0 24 24"><path d="M3 7.5A2.5 2.5 0 0 1 5.5 5h4l2 2h7A2.5 2.5 0 0 1 21 9.5v7A2.5 2.5 0 0 1 18.5 19h-13A2.5 2.5 0 0 1 3 16.5z"/><path d="M3.5 9h17"/></symbol>
  <symbol id="icon-analyze" viewBox="0 0 24 24"><circle cx="10.5" cy="10.5" r="5.5"/><path d="m15 15 5 5"/><path d="M8 10.5h5"/><path d="M10.5 8v5"/></symbol>
  <symbol id="icon-ai" viewBox="0 0 24 24"><path d="M12 3v3"/><path d="M12 18v3"/><path d="M4 12h3"/><path d="M17 12h3"/><path d="M6.8 6.8 9 9"/><path d="m15 15 2.2 2.2"/><rect x="8" y="8" width="8" height="8" rx="2"/><path d="M10.5 12h3"/></symbol>
  <symbol id="icon-refresh" viewBox="0 0 24 24"><path d="M20 6v5h-5"/><path d="M4 18v-5h5"/><path d="M18.5 9A7 7 0 0 0 6.2 6.8"/><path d="M5.5 15A7 7 0 0 0 17.8 17.2"/></symbol>
  <symbol id="icon-check" viewBox="0 0 24 24"><path d="m5 12.5 4 4L19 6.5"/></symbol>
  <symbol id="icon-clear" viewBox="0 0 24 24"><path d="M5 5l14 14"/><path d="M19 5 5 19"/></symbol>
  <symbol id="icon-export-json" viewBox="0 0 24 24"><path d="M7 3h7l4 4v14H7z"/><path d="M14 3v5h5"/><path d="M10 13h1"/><path d="M13 13h1"/><path d="M16 13h1"/><path d="M10 17h7"/></symbol>
  <symbol id="icon-export-csv" viewBox="0 0 24 24"><path d="M7 3h7l4 4v14H7z"/><path d="M14 3v5h5"/><path d="M10 12h7"/><path d="M10 15h7"/><path d="M10 18h5"/></symbol>
  <symbol id="icon-summary" viewBox="0 0 24 24"><path d="M5 5h14v14H5z"/><path d="M8 9h8"/><path d="M8 13h8"/><path d="M8 17h5"/></symbol>
  <symbol id="icon-execute" viewBox="0 0 24 24"><path d="M8 5v14l11-7z"/></symbol>
  <symbol id="icon-rollback" viewBox="0 0 24 24"><path d="M9 7H4v5"/><path d="M5.5 10A7.5 7.5 0 1 1 8 18.5"/></symbol>
  <symbol id="icon-history" viewBox="0 0 24 24"><path d="M3 12a9 9 0 1 0 3-6.7"/><path d="M3 4v5h5"/><path d="M12 7v5l3 2"/></symbol>
  <symbol id="icon-settings" viewBox="0 0 24 24"><circle cx="12" cy="12" r="3"/><path d="M12 2.5v3"/><path d="M12 18.5v3"/><path d="M4.2 4.2 6.3 6.3"/><path d="m17.7 17.7 2.1 2.1"/><path d="M2.5 12h3"/><path d="M18.5 12h3"/><path d="m4.2 19.8 2.1-2.1"/><path d="m17.7 6.3 2.1-2.1"/></symbol>
  <symbol id="icon-quarantine" viewBox="0 0 24 24"><path d="M4 7h16"/><path d="M7 7v13h10V7"/><path d="M9 7V4h6v3"/><path d="M9 11h6"/><path d="M9 15h6"/></symbol>
  <symbol id="icon-details" viewBox="0 0 24 24"><circle cx="12" cy="12" r="9"/><path d="M12 11v5"/><path d="M12 7.5h.01"/></symbol>
  <symbol id="icon-info" viewBox="0 0 24 24"><circle cx="12" cy="12" r="9"/><path d="M12 11v5"/><path d="M12 7.5h.01"/></symbol>
  <symbol id="icon-warning" viewBox="0 0 24 24"><path d="m12 3 10 18H2z"/><path d="M12 9v5"/><path d="M12 17.5h.01"/></symbol>
  <symbol id="icon-error" viewBox="0 0 24 24"><circle cx="12" cy="12" r="9"/><path d="M8 8l8 8"/><path d="m16 8-8 8"/></symbol>
  <symbol id="icon-blocking" viewBox="0 0 24 24"><circle cx="12" cy="12" r="9"/><path d="M5.7 18.3 18.3 5.7"/></symbol>
  <symbol id="icon-review" viewBox="0 0 24 24"><path d="M5 4h14v12H8l-3 3z"/><path d="M8 8h8"/><path d="M8 12h6"/></symbol>
  <symbol id="icon-edit" viewBox="0 0 24 24"><path d="M4 20h5l11-11-5-5L4 15z"/><path d="m13.5 5.5 5 5"/></symbol>
  <symbol id="icon-copy" viewBox="0 0 24 24"><rect x="8" y="8" width="11" height="11" rx="2"/><path d="M5 15H4a2 2 0 0 1-2-2V5a2 2 0 0 1 2-2h8a2 2 0 0 1 2 2v1"/></symbol>
  <symbol id="icon-diagnostics" viewBox="0 0 24 24"><path d="M4 18h16"/><path d="M7 18V9"/><path d="M12 18V5"/><path d="M17 18v-6"/></symbol>
  <symbol id="icon-success" viewBox="0 0 24 24"><circle cx="12" cy="12" r="9"/><path d="m8 12.5 3 3L17 8"/></symbol>
  <symbol id="icon-failed" viewBox="0 0 24 24"><circle cx="12" cy="12" r="9"/><path d="M8 8l8 8"/><path d="m16 8-8 8"/></symbol>
  <symbol id="icon-filter" viewBox="0 0 24 24"><path d="M4 5h16l-6 7v5l-4 2v-7z"/></symbol>
  <symbol id="icon-close" viewBox="0 0 24 24"><path d="M6 6l12 12"/><path d="M18 6 6 18"/></symbol>
  <symbol id="icon-chevron-down" viewBox="0 0 24 24"><path d="m6 9 6 6 6-6"/></symbol>
  <symbol id="icon-chevron-right" viewBox="0 0 24 24"><path d="m9 6 6 6-6 6"/></symbol>
</svg>
